<mxfile host="app.diagrams.net" modified="2021-12-14T05:08:09.178Z" agent="5.0 (Macintosh; Intel Mac OS X 10_15_7) AppleWebKit/537.36 (KHTML, like Gecko) Chrome/96.0.4664.93 Safari/537.36" etag="89SYmdrdkzRTSvji56Rj" version="15.9.4" type="github">
  <diagram id="OTXxbYk35LF4hYgVnh6c" name="Page-1">
    <mxGraphModel dx="930" dy="699" grid="1" gridSize="10" guides="1" tooltips="1" connect="1" arrows="1" fold="1" page="1" pageScale="1" pageWidth="827" pageHeight="1169" math="0" shadow="0">
      <root>
        <mxCell id="0" />
        <mxCell id="1" parent="0" />
        <mxCell id="zmqYCoG8ziZnfrEZIKGv-16" value="" style="group" vertex="1" connectable="0" parent="1">
          <mxGeometry x="400" y="70" width="168.27" height="370" as="geometry" />
        </mxCell>
        <mxCell id="zmqYCoG8ziZnfrEZIKGv-17" value="" style="group;fillColor=#ffcc99;strokeColor=#36393d;container=0;fontSize=16;" vertex="1" connectable="0" parent="zmqYCoG8ziZnfrEZIKGv-16">
          <mxGeometry width="168.27000000000004" height="370" as="geometry" />
        </mxCell>
        <mxCell id="zmqYCoG8ziZnfrEZIKGv-18" value="File Header" style="rounded=0;whiteSpace=wrap;html=1;fontSize=16;fillColor=#ffcc99;strokeColor=#36393d;" vertex="1" parent="zmqYCoG8ziZnfrEZIKGv-16">
          <mxGeometry width="168.27000000000004" height="38.94736842105264" as="geometry" />
        </mxCell>
        <mxCell id="zmqYCoG8ziZnfrEZIKGv-19" value="Page Header" style="rounded=0;whiteSpace=wrap;html=1;fontSize=16;" vertex="1" parent="zmqYCoG8ziZnfrEZIKGv-16">
          <mxGeometry y="38.94736842105263" width="168.27000000000004" height="38.94736842105264" as="geometry" />
        </mxCell>
        <mxCell id="zmqYCoG8ziZnfrEZIKGv-20" value="Infimun + Supremum" style="rounded=0;whiteSpace=wrap;html=1;fontSize=16;" vertex="1" parent="zmqYCoG8ziZnfrEZIKGv-16">
          <mxGeometry y="77.89473684210526" width="168.27000000000004" height="38.94736842105264" as="geometry" />
        </mxCell>
        <mxCell id="zmqYCoG8ziZnfrEZIKGv-21" value="User Records" style="rounded=0;whiteSpace=wrap;html=1;fontSize=16;" vertex="1" parent="zmqYCoG8ziZnfrEZIKGv-16">
          <mxGeometry y="116.8421052631579" width="168.27000000000004" height="116.84210526315789" as="geometry" />
        </mxCell>
        <mxCell id="zmqYCoG8ziZnfrEZIKGv-22" value="Free Space" style="rounded=0;whiteSpace=wrap;html=1;fontSize=16;" vertex="1" parent="zmqYCoG8ziZnfrEZIKGv-16">
          <mxGeometry y="233.68421052631578" width="168.27000000000004" height="58.421052631578945" as="geometry" />
        </mxCell>
        <mxCell id="zmqYCoG8ziZnfrEZIKGv-23" value="Page Directory" style="rounded=0;whiteSpace=wrap;html=1;fontSize=16;" vertex="1" parent="zmqYCoG8ziZnfrEZIKGv-16">
          <mxGeometry y="292.1052631578948" width="168.27000000000004" height="38.94736842105264" as="geometry" />
        </mxCell>
        <mxCell id="zmqYCoG8ziZnfrEZIKGv-24" value="&lt;span style=&quot;font-size: 16px&quot;&gt;File Trailer&lt;/span&gt;" style="rounded=0;whiteSpace=wrap;html=1;fontSize=16;" vertex="1" parent="zmqYCoG8ziZnfrEZIKGv-16">
          <mxGeometry y="331.0526315789474" width="168.27000000000004" height="38.94736842105264" as="geometry" />
        </mxCell>
        <mxCell id="zmqYCoG8ziZnfrEZIKGv-2" value="" style="group;fillColor=#ffcc99;strokeColor=#36393d;container=0;fontSize=16;" vertex="1" connectable="0" parent="1">
          <mxGeometry x="119.99999999999999" y="70" width="168.27000000000004" height="370" as="geometry" />
        </mxCell>
        <mxCell id="zmqYCoG8ziZnfrEZIKGv-25" style="edgeStyle=orthogonalEdgeStyle;rounded=0;orthogonalLoop=1;jettySize=auto;html=1;entryX=0;entryY=0;entryDx=0;entryDy=0;strokeWidth=2;fillColor=#f8cecc;gradientColor=#ea6b66;strokeColor=#b85450;" edge="1" parent="1" target="zmqYCoG8ziZnfrEZIKGv-18">
          <mxGeometry relative="1" as="geometry">
            <mxPoint x="290" y="70" as="sourcePoint" />
            <Array as="points">
              <mxPoint x="380" y="70" />
              <mxPoint x="380" y="70" />
            </Array>
          </mxGeometry>
        </mxCell>
        <mxCell id="zmqYCoG8ziZnfrEZIKGv-3" value="File Header" style="rounded=0;whiteSpace=wrap;html=1;fontSize=16;fillColor=#ffcc99;strokeColor=#36393d;" vertex="1" parent="1">
          <mxGeometry x="119.99999999999999" y="70" width="168.27000000000004" height="38.94736842105264" as="geometry" />
        </mxCell>
        <mxCell id="zmqYCoG8ziZnfrEZIKGv-4" value="Page Header" style="rounded=0;whiteSpace=wrap;html=1;fontSize=16;" vertex="1" parent="1">
          <mxGeometry x="119.99999999999999" y="108.94736842105263" width="168.27000000000004" height="38.94736842105264" as="geometry" />
        </mxCell>
        <mxCell id="zmqYCoG8ziZnfrEZIKGv-5" value="Infimun + Supremum" style="rounded=0;whiteSpace=wrap;html=1;fontSize=16;" vertex="1" parent="1">
          <mxGeometry x="119.99999999999999" y="147.89473684210526" width="168.27000000000004" height="38.94736842105264" as="geometry" />
        </mxCell>
        <mxCell id="zmqYCoG8ziZnfrEZIKGv-6" value="User Records" style="rounded=0;whiteSpace=wrap;html=1;fontSize=16;" vertex="1" parent="1">
          <mxGeometry x="119.99999999999999" y="186.84210526315792" width="168.27000000000004" height="116.84210526315789" as="geometry" />
        </mxCell>
        <mxCell id="zmqYCoG8ziZnfrEZIKGv-7" value="Free Space" style="rounded=0;whiteSpace=wrap;html=1;fontSize=16;" vertex="1" parent="1">
          <mxGeometry x="119.99999999999999" y="303.6842105263158" width="168.27000000000004" height="58.421052631578945" as="geometry" />
        </mxCell>
        <mxCell id="zmqYCoG8ziZnfrEZIKGv-8" value="Page Directory" style="rounded=0;whiteSpace=wrap;html=1;fontSize=16;" vertex="1" parent="1">
          <mxGeometry x="119.99999999999999" y="362.1052631578948" width="168.27000000000004" height="38.94736842105264" as="geometry" />
        </mxCell>
        <mxCell id="zmqYCoG8ziZnfrEZIKGv-9" value="&lt;span style=&quot;font-size: 16px&quot;&gt;File Trailer&lt;/span&gt;" style="rounded=0;whiteSpace=wrap;html=1;fontSize=16;" vertex="1" parent="1">
          <mxGeometry x="119.99999999999999" y="401.0526315789474" width="168.27000000000004" height="38.94736842105264" as="geometry" />
        </mxCell>
        <mxCell id="zmqYCoG8ziZnfrEZIKGv-26" style="rounded=0;orthogonalLoop=1;jettySize=auto;html=1;exitX=0;exitY=1;exitDx=0;exitDy=0;strokeWidth=2;fillColor=#f8cecc;gradientColor=#ea6b66;strokeColor=#b85450;" edge="1" parent="1" source="zmqYCoG8ziZnfrEZIKGv-18">
          <mxGeometry relative="1" as="geometry">
            <mxPoint x="290" y="110" as="targetPoint" />
          </mxGeometry>
        </mxCell>
        <mxCell id="zmqYCoG8ziZnfrEZIKGv-27" value="" style="group" vertex="1" connectable="0" parent="1">
          <mxGeometry x="960" y="70" width="168.27" height="370" as="geometry" />
        </mxCell>
        <mxCell id="zmqYCoG8ziZnfrEZIKGv-28" value="" style="group;fillColor=#ffcc99;strokeColor=#36393d;container=0;fontSize=16;" vertex="1" connectable="0" parent="zmqYCoG8ziZnfrEZIKGv-27">
          <mxGeometry width="168.27000000000004" height="370" as="geometry" />
        </mxCell>
        <mxCell id="zmqYCoG8ziZnfrEZIKGv-29" value="File Header" style="rounded=0;whiteSpace=wrap;html=1;fontSize=16;fillColor=#ffcc99;strokeColor=#36393d;" vertex="1" parent="zmqYCoG8ziZnfrEZIKGv-27">
          <mxGeometry width="168.27000000000004" height="38.94736842105264" as="geometry" />
        </mxCell>
        <mxCell id="zmqYCoG8ziZnfrEZIKGv-30" value="Page Header" style="rounded=0;whiteSpace=wrap;html=1;fontSize=16;" vertex="1" parent="zmqYCoG8ziZnfrEZIKGv-27">
          <mxGeometry y="38.94736842105263" width="168.27000000000004" height="38.94736842105264" as="geometry" />
        </mxCell>
        <mxCell id="zmqYCoG8ziZnfrEZIKGv-31" value="Infimun + Supremum" style="rounded=0;whiteSpace=wrap;html=1;fontSize=16;" vertex="1" parent="zmqYCoG8ziZnfrEZIKGv-27">
          <mxGeometry y="77.89473684210526" width="168.27000000000004" height="38.94736842105264" as="geometry" />
        </mxCell>
        <mxCell id="zmqYCoG8ziZnfrEZIKGv-32" value="User Records" style="rounded=0;whiteSpace=wrap;html=1;fontSize=16;" vertex="1" parent="zmqYCoG8ziZnfrEZIKGv-27">
          <mxGeometry y="116.8421052631579" width="168.27000000000004" height="116.84210526315789" as="geometry" />
        </mxCell>
        <mxCell id="zmqYCoG8ziZnfrEZIKGv-33" value="Free Space" style="rounded=0;whiteSpace=wrap;html=1;fontSize=16;" vertex="1" parent="zmqYCoG8ziZnfrEZIKGv-27">
          <mxGeometry y="233.68421052631578" width="168.27000000000004" height="58.421052631578945" as="geometry" />
        </mxCell>
        <mxCell id="zmqYCoG8ziZnfrEZIKGv-34" value="Page Directory" style="rounded=0;whiteSpace=wrap;html=1;fontSize=16;" vertex="1" parent="zmqYCoG8ziZnfrEZIKGv-27">
          <mxGeometry y="292.1052631578948" width="168.27000000000004" height="38.94736842105264" as="geometry" />
        </mxCell>
        <mxCell id="zmqYCoG8ziZnfrEZIKGv-35" value="&lt;span style=&quot;font-size: 16px&quot;&gt;File Trailer&lt;/span&gt;" style="rounded=0;whiteSpace=wrap;html=1;fontSize=16;" vertex="1" parent="zmqYCoG8ziZnfrEZIKGv-27">
          <mxGeometry y="331.0526315789474" width="168.27000000000004" height="38.94736842105264" as="geometry" />
        </mxCell>
        <mxCell id="zmqYCoG8ziZnfrEZIKGv-36" value="" style="group;fillColor=#ffcc99;strokeColor=#36393d;container=0;fontSize=16;" vertex="1" connectable="0" parent="1">
          <mxGeometry x="680" y="70" width="168.27000000000004" height="370" as="geometry" />
        </mxCell>
        <mxCell id="zmqYCoG8ziZnfrEZIKGv-37" style="edgeStyle=orthogonalEdgeStyle;rounded=0;orthogonalLoop=1;jettySize=auto;html=1;entryX=0;entryY=0;entryDx=0;entryDy=0;strokeWidth=2;fillColor=#f8cecc;gradientColor=#ea6b66;strokeColor=#b85450;" edge="1" parent="1" target="zmqYCoG8ziZnfrEZIKGv-29">
          <mxGeometry relative="1" as="geometry">
            <mxPoint x="850" y="70" as="sourcePoint" />
            <Array as="points">
              <mxPoint x="940" y="70" />
              <mxPoint x="940" y="70" />
            </Array>
          </mxGeometry>
        </mxCell>
        <mxCell id="zmqYCoG8ziZnfrEZIKGv-47" style="edgeStyle=none;rounded=0;orthogonalLoop=1;jettySize=auto;html=1;entryX=1;entryY=1;entryDx=0;entryDy=0;exitX=0;exitY=1;exitDx=0;exitDy=0;fillColor=#f8cecc;strokeColor=#b85450;strokeWidth=2;gradientColor=#ea6b66;" edge="1" parent="1" source="zmqYCoG8ziZnfrEZIKGv-38" target="zmqYCoG8ziZnfrEZIKGv-18">
          <mxGeometry relative="1" as="geometry">
            <mxPoint x="640" y="80" as="targetPoint" />
          </mxGeometry>
        </mxCell>
        <mxCell id="zmqYCoG8ziZnfrEZIKGv-38" value="File Header" style="rounded=0;whiteSpace=wrap;html=1;fontSize=16;fillColor=#ffcc99;strokeColor=#36393d;" vertex="1" parent="1">
          <mxGeometry x="680" y="70" width="168.27000000000004" height="38.94736842105264" as="geometry" />
        </mxCell>
        <mxCell id="zmqYCoG8ziZnfrEZIKGv-39" value="Page Header" style="rounded=0;whiteSpace=wrap;html=1;fontSize=16;" vertex="1" parent="1">
          <mxGeometry x="680" y="108.94736842105263" width="168.27000000000004" height="38.94736842105264" as="geometry" />
        </mxCell>
        <mxCell id="zmqYCoG8ziZnfrEZIKGv-40" value="Infimun + Supremum" style="rounded=0;whiteSpace=wrap;html=1;fontSize=16;" vertex="1" parent="1">
          <mxGeometry x="680" y="147.89473684210526" width="168.27000000000004" height="38.94736842105264" as="geometry" />
        </mxCell>
        <mxCell id="zmqYCoG8ziZnfrEZIKGv-41" value="User Records" style="rounded=0;whiteSpace=wrap;html=1;fontSize=16;" vertex="1" parent="1">
          <mxGeometry x="680" y="186.84210526315792" width="168.27000000000004" height="116.84210526315789" as="geometry" />
        </mxCell>
        <mxCell id="zmqYCoG8ziZnfrEZIKGv-42" value="Free Space" style="rounded=0;whiteSpace=wrap;html=1;fontSize=16;" vertex="1" parent="1">
          <mxGeometry x="680" y="303.6842105263158" width="168.27000000000004" height="58.421052631578945" as="geometry" />
        </mxCell>
        <mxCell id="zmqYCoG8ziZnfrEZIKGv-43" value="Page Directory" style="rounded=0;whiteSpace=wrap;html=1;fontSize=16;" vertex="1" parent="1">
          <mxGeometry x="680" y="362.1052631578948" width="168.27000000000004" height="38.94736842105264" as="geometry" />
        </mxCell>
        <mxCell id="zmqYCoG8ziZnfrEZIKGv-44" value="&lt;span style=&quot;font-size: 16px&quot;&gt;File Trailer&lt;/span&gt;" style="rounded=0;whiteSpace=wrap;html=1;fontSize=16;" vertex="1" parent="1">
          <mxGeometry x="680" y="401.0526315789474" width="168.27000000000004" height="38.94736842105264" as="geometry" />
        </mxCell>
        <mxCell id="zmqYCoG8ziZnfrEZIKGv-45" style="rounded=0;orthogonalLoop=1;jettySize=auto;html=1;exitX=0;exitY=1;exitDx=0;exitDy=0;strokeWidth=2;fillColor=#f8cecc;gradientColor=#ea6b66;strokeColor=#b85450;" edge="1" parent="1" source="zmqYCoG8ziZnfrEZIKGv-29">
          <mxGeometry relative="1" as="geometry">
            <mxPoint x="850" y="110" as="targetPoint" />
          </mxGeometry>
        </mxCell>
        <mxCell id="zmqYCoG8ziZnfrEZIKGv-46" style="edgeStyle=none;rounded=0;orthogonalLoop=1;jettySize=auto;html=1;entryX=0;entryY=0;entryDx=0;entryDy=0;fillColor=#f8cecc;strokeColor=#b85450;strokeWidth=2;gradientColor=#ea6b66;" edge="1" parent="1" target="zmqYCoG8ziZnfrEZIKGv-38">
          <mxGeometry relative="1" as="geometry">
            <mxPoint x="570" y="70" as="sourcePoint" />
          </mxGeometry>
        </mxCell>
        <mxCell id="zmqYCoG8ziZnfrEZIKGv-48" value="数据页1" style="text;html=1;align=center;verticalAlign=middle;resizable=0;points=[];autosize=1;strokeColor=none;fillColor=none;fontSize=16;" vertex="1" parent="1">
          <mxGeometry x="169.13" y="40" width="70" height="20" as="geometry" />
        </mxCell>
        <mxCell id="zmqYCoG8ziZnfrEZIKGv-49" value="数据页2" style="text;html=1;align=center;verticalAlign=middle;resizable=0;points=[];autosize=1;strokeColor=none;fillColor=none;fontSize=16;" vertex="1" parent="1">
          <mxGeometry x="449.13" y="40" width="70" height="20" as="geometry" />
        </mxCell>
        <mxCell id="zmqYCoG8ziZnfrEZIKGv-51" value="数据页3" style="text;html=1;align=center;verticalAlign=middle;resizable=0;points=[];autosize=1;strokeColor=none;fillColor=none;fontSize=16;" vertex="1" parent="1">
          <mxGeometry x="729.14" y="40" width="70" height="20" as="geometry" />
        </mxCell>
        <mxCell id="zmqYCoG8ziZnfrEZIKGv-52" value="数据页4" style="text;html=1;align=center;verticalAlign=middle;resizable=0;points=[];autosize=1;strokeColor=none;fillColor=none;fontSize=16;" vertex="1" parent="1">
          <mxGeometry x="1009.13" y="40" width="70" height="20" as="geometry" />
        </mxCell>
      </root>
    </mxGraphModel>
  </diagram>
</mxfile>
